<?xml version="1.0" encoding="utf-8"?>
<!-- Generator: Adobe Illustrator 13.0.0, SVG Export Plug-In . SVG Version: 6.00 Build 14948)  -->
<!DOCTYPE svg PUBLIC "-//W3C//DTD SVG 1.1//EN" "http://www.w3.org/Graphics/SVG/1.1/DTD/svg11.dtd">
<svg version="1.1"
	 id="svg2462" sodipodi:version="0.32" sodipodi:docname="scrabble-plateau.svg" inkscape:version="0.46" inkscape:output_extension="org.inkscape.output.svg.inkscape" xmlns:cc="http://creativecommons.org/ns#" xmlns:rdf="http://www.w3.org/1999/02/22-rdf-syntax-ns#" xmlns:svg="http://www.w3.org/2000/svg" xmlns:sodipodi="http://sodipodi.sourceforge.net/DTD/sodipodi-0.dtd" xmlns:inkscape="http://www.inkscape.org/namespaces/inkscape" xmlns:dc="http://purl.org/dc/elements/1.1/"
	 xmlns="http://www.w3.org/2000/svg" xmlns:xlink="http://www.w3.org/1999/xlink" x="0px" y="0px" width="900px" height="900px"
	 viewBox="0 0 900 900" enable-background="new 0 0 900 900" xml:space="preserve">
<defs>
	
	
		<inkscape:perspective  id="perspective2470" inkscape:persp3d-origin="372.04724 : 350.78739 : 1" inkscape:vp_z="744.09448 : 526.18109 : 1" inkscape:vp_y="0 : 1000 : 0" inkscape:vp_x="0 : 526.18109 : 1" sodipodi:type="inkscape:persp3d">
		</inkscape:perspective>
	
		<inkscape:perspective  id="perspective3253" inkscape:persp3d-origin="372.04724 : 350.78739 : 1" inkscape:vp_z="744.09448 : 526.18109 : 1" inkscape:vp_y="0 : 1000 : 0" inkscape:vp_x="0 : 526.18109 : 1" sodipodi:type="inkscape:persp3d">
		</inkscape:perspective>
</defs>
<sodipodi:namedview  id="base" inkscape:current-layer="layer1" inkscape:window-y="-4" inkscape:window-x="-4" inkscape:pageopacity="0.0" inkscape:pageshadow="2" inkscape:window-width="1024" inkscape:window-height="712" inkscape:cy="365.85082" inkscape:cx="567.63517" inkscape:zoom="0.35" showgrid="false" pagecolor="#ffffff" bordercolor="#666666" borderopacity="1.0" inkscape:document-units="px">
	</sodipodi:namedview>
<g id="layer1" inkscape:label="Calque 1" inkscape:groupmode="layer">
	<g id="g4979">
		<path id="rect2472" fill="#19BE72" d="M0,0h900v900H0V0z"/>
		<path id="rect3244" fill="#FF0000" stroke="#000000" stroke-width="5.0794" d="M2.539,837.797h59.664v59.664H2.539V837.797z"/>
		<path id="rect3259" fill="none" stroke="#000000" stroke-width="5.0794" d="M62.2,837.797h59.665v59.664H62.2V837.797z"/>
		<path id="rect3261" fill="none" stroke="#000000" stroke-width="5.0794" d="M121.862,837.797h59.665v59.664h-59.665V837.797z"/>
		<path id="rect3270" fill="#00C0FF" stroke="#000000" stroke-width="5.0794" d="M181.524,837.797h59.664v59.664h-59.664V837.797z"
			/>
		<path id="rect3272" fill="none" stroke="#000000" stroke-width="5.0794" d="M241.185,837.797h59.663v59.664h-59.663V837.797z"/>
		<path id="rect3274" fill="none" stroke="#000000" stroke-width="5.0794" d="M300.845,837.797h59.664v59.664h-59.664V837.797z"/>
		<path id="rect3331" fill="none" stroke="#000000" stroke-width="5.0794" d="M360.506,837.797h59.664v59.664h-59.664V837.797z"/>
		<path id="rect3333" fill="#FF0000" stroke="#000000" stroke-width="5.0794" d="M420.168,837.797h59.664v59.664h-59.664V837.797z"
			/>
		<path id="rect3335" fill="none" stroke="#000000" stroke-width="5.0794" d="M479.829,837.797h59.664v59.664h-59.664V837.797z"/>
		<path id="rect3337" fill="none" stroke="#000000" stroke-width="5.0794" d="M539.49,837.797h59.664v59.664H539.49V837.797z"/>
		<path id="rect3339" fill="none" stroke="#000000" stroke-width="5.0794" d="M599.152,837.797h59.664v59.664h-59.664V837.797z"/>
		<path id="rect3341" fill="#00C0FF" stroke="#000000" stroke-width="5.0794" d="M658.813,837.797h59.664v59.664h-59.664V837.797z"
			/>
		<path id="rect3356" fill="none" stroke="#000000" stroke-width="5.0794" d="M718.474,837.797h59.664v59.664h-59.664V837.797z"/>
		<path id="rect3358" fill="none" stroke="#000000" stroke-width="5.0794" d="M778.135,837.797h59.664v59.664h-59.664V837.797z"/>
		<path id="rect3360" fill="#FF0000" stroke="#000000" stroke-width="5.0794" d="M837.796,837.797h59.664v59.664h-59.664V837.797z"
			/>
		<path id="rect3431" fill="none" stroke="#000000" stroke-width="5.0794" d="M2.539,778.135h59.664V837.8H2.539V778.135z"/>
		<path id="rect3433" fill="#FF80E5" stroke="#000000" stroke-width="5.0794" d="M62.2,778.135h59.665V837.8H62.2V778.135z"/>
		<path id="rect3435" fill="none" stroke="#000000" stroke-width="5.0794" d="M121.862,778.135h59.665V837.8h-59.665V778.135z"/>
		<path id="rect3437" fill="none" stroke="#000000" stroke-width="5.0794" d="M181.524,778.135h59.664V837.8h-59.664V778.135z"/>
		<path id="rect3439" fill="none" stroke="#000000" stroke-width="5.0794" d="M241.185,778.135h59.663V837.8h-59.663V778.135z"/>
		<path id="rect3441" fill="#0000FF" stroke="#000000" stroke-width="5.0794" d="M300.845,778.135h59.664V837.8h-59.664V778.135z"/>
		<path id="rect3443" fill="none" stroke="#000000" stroke-width="5.0794" d="M360.506,778.135h59.664V837.8h-59.664V778.135z"/>
		<path id="rect3445" fill="none" stroke="#000000" stroke-width="5.0794" d="M420.168,778.135h59.664V837.8h-59.664V778.135z"/>
		<path id="rect3447" fill="none" stroke="#000000" stroke-width="5.0794" d="M479.829,778.135h59.664V837.8h-59.664V778.135z"/>
		<path id="rect3449" fill="#0000FF" stroke="#000000" stroke-width="5.0794" d="M539.49,778.135h59.664V837.8H539.49V778.135z"/>
		<path id="rect3451" fill="none" stroke="#000000" stroke-width="5.0794" d="M599.152,778.135h59.664V837.8h-59.664V778.135z"/>
		<path id="rect3453" fill="none" stroke="#000000" stroke-width="5.0794" d="M658.813,778.135h59.664V837.8h-59.664V778.135z"/>
		<path id="rect3455" fill="none" stroke="#000000" stroke-width="5.0794" d="M718.474,778.135h59.664V837.8h-59.664V778.135z"/>
		<path id="rect3457" fill="#FF80E5" stroke="#000000" stroke-width="5.0794" d="M778.135,778.135h59.664V837.8h-59.664V778.135z"/>
		<path id="rect3459" fill="none" stroke="#000000" stroke-width="5.0794" d="M837.796,778.135h59.664V837.8h-59.664V778.135z"/>
		<path id="rect3463" fill="none" stroke="#000000" stroke-width="5.0794" d="M2.539,718.474h59.664v59.664H2.539V718.474z"/>
		<path id="rect3465" fill="none" stroke="#000000" stroke-width="5.0794" d="M62.2,718.474h59.665v59.664H62.2V718.474z"/>
		<path id="rect3467" fill="#FF80E5" stroke="#000000" stroke-width="5.0794" d="M121.862,718.474h59.665v59.664h-59.665V718.474z"
			/>
		<path id="rect3469" fill="none" stroke="#000000" stroke-width="5.0794" d="M181.524,718.474h59.664v59.664h-59.664V718.474z"/>
		<path id="rect3471" fill="none" stroke="#000000" stroke-width="5.0794" d="M241.185,718.474h59.663v59.664h-59.663V718.474z"/>
		<path id="rect3473" fill="none" stroke="#000000" stroke-width="5.0794" d="M300.845,718.474h59.664v59.664h-59.664V718.474z"/>
		<path id="rect3475" fill="#00C0FF" stroke="#000000" stroke-width="5.0794" d="M360.506,718.474h59.664v59.664h-59.664V718.474z"
			/>
		<path id="rect3477" fill="none" stroke="#000000" stroke-width="5.0794" d="M420.168,718.474h59.664v59.664h-59.664V718.474z"/>
		<path id="rect3479" fill="#00C0FF" stroke="#000000" stroke-width="5.0794" d="M479.829,718.474h59.664v59.664h-59.664V718.474z"
			/>
		<path id="rect3481" fill="none" stroke="#000000" stroke-width="5.0794" d="M539.49,718.474h59.664v59.664H539.49V718.474z"/>
		<path id="rect3483" fill="none" stroke="#000000" stroke-width="5.0794" d="M599.152,718.474h59.664v59.664h-59.664V718.474z"/>
		<path id="rect3485" fill="none" stroke="#000000" stroke-width="5.0794" d="M658.813,718.474h59.664v59.664h-59.664V718.474z"/>
		<path id="rect3487" fill="#FF80E5" stroke="#000000" stroke-width="5.0794" d="M718.474,718.474h59.664v59.664h-59.664V718.474z"
			/>
		<path id="rect3489" fill="none" stroke="#000000" stroke-width="5.0794" d="M778.135,718.474h59.664v59.664h-59.664V718.474z"/>
		<path id="rect3491" fill="none" stroke="#000000" stroke-width="5.0794" d="M837.796,718.474h59.664v59.664h-59.664V718.474z"/>
		<path id="rect3685" fill="#00C0FF" stroke="#000000" stroke-width="5.0794" d="M2.539,658.813h59.664v59.664H2.539V658.813z"/>
		<path id="rect3687" fill="none" stroke="#000000" stroke-width="5.0794" d="M62.2,658.813h59.665v59.664H62.2V658.813z"/>
		<path id="rect3689" fill="none" stroke="#000000" stroke-width="5.0794" d="M121.862,658.813h59.665v59.664h-59.665V658.813z"/>
		<path id="rect3691" fill="#FF80E5" stroke="#000000" stroke-width="5.0794" d="M181.524,658.813h59.664v59.664h-59.664V658.813z"
			/>
		<path id="rect3693" fill="none" stroke="#000000" stroke-width="5.0794" d="M241.185,658.813h59.663v59.664h-59.663V658.813z"/>
		<path id="rect3695" fill="none" stroke="#000000" stroke-width="5.0794" d="M300.845,658.813h59.664v59.664h-59.664V658.813z"/>
		<path id="rect3697" fill="none" stroke="#000000" stroke-width="5.0794" d="M360.506,658.813h59.664v59.664h-59.664V658.813z"/>
		<path id="rect3699" fill="#00C0FF" stroke="#000000" stroke-width="5.0794" d="M420.168,658.813h59.664v59.664h-59.664V658.813z"
			/>
		<path id="rect3701" fill="none" stroke="#000000" stroke-width="5.0794" d="M479.829,658.813h59.664v59.664h-59.664V658.813z"/>
		<path id="rect3703" fill="none" stroke="#000000" stroke-width="5.0794" d="M539.49,658.813h59.664v59.664H539.49V658.813z"/>
		<path id="rect3705" fill="none" stroke="#000000" stroke-width="5.0794" d="M599.152,658.813h59.664v59.664h-59.664V658.813z"/>
		<path id="rect3707" fill="#FF80E5" stroke="#000000" stroke-width="5.0794" d="M658.813,658.813h59.664v59.664h-59.664V658.813z"
			/>
		<path id="rect3709" fill="none" stroke="#000000" stroke-width="5.0794" d="M718.474,658.813h59.664v59.664h-59.664V658.813z"/>
		<path id="rect3711" fill="none" stroke="#000000" stroke-width="5.0794" d="M778.135,658.813h59.664v59.664h-59.664V658.813z"/>
		<path id="rect3713" fill="#00C0FF" stroke="#000000" stroke-width="5.0794" d="M837.796,658.813h59.664v59.664h-59.664V658.813z"
			/>
		<path id="rect3715" fill="none" stroke="#000000" stroke-width="5.0794" d="M2.539,599.152h59.664v59.664H2.539V599.152z"/>
		<path id="rect3717" fill="none" stroke="#000000" stroke-width="5.0794" d="M62.2,599.152h59.665v59.664H62.2V599.152z"/>
		<path id="rect3719" fill="none" stroke="#000000" stroke-width="5.0794" d="M121.862,599.152h59.665v59.664h-59.665V599.152z"/>
		<path id="rect3721" fill="none" stroke="#000000" stroke-width="5.0794" d="M181.524,599.152h59.664v59.664h-59.664V599.152z"/>
		<path id="rect3723" fill="#FF80E5" stroke="#000000" stroke-width="5.0794" d="M241.185,599.152h59.663v59.664h-59.663V599.152z"
			/>
		<path id="rect3725" fill="none" stroke="#000000" stroke-width="5.0794" d="M300.845,599.152h59.664v59.664h-59.664V599.152z"/>
		<path id="rect3727" fill="none" stroke="#000000" stroke-width="5.0794" d="M360.506,599.152h59.664v59.664h-59.664V599.152z"/>
		<path id="rect3729" fill="none" stroke="#000000" stroke-width="5.0794" d="M420.168,599.152h59.664v59.664h-59.664V599.152z"/>
		<path id="rect3731" fill="none" stroke="#000000" stroke-width="5.0794" d="M479.829,599.152h59.664v59.664h-59.664V599.152z"/>
		<path id="rect3733" fill="none" stroke="#000000" stroke-width="5.0794" d="M539.49,599.152h59.664v59.664H539.49V599.152z"/>
		<path id="rect3735" fill="#FF80E5" stroke="#000000" stroke-width="5.0794" d="M599.152,599.152h59.664v59.664h-59.664V599.152z"
			/>
		<path id="rect3737" fill="none" stroke="#000000" stroke-width="5.0794" d="M658.813,599.152h59.664v59.664h-59.664V599.152z"/>
		<path id="rect3739" fill="none" stroke="#000000" stroke-width="5.0794" d="M718.474,599.152h59.664v59.664h-59.664V599.152z"/>
		<path id="rect3741" fill="none" stroke="#000000" stroke-width="5.0794" d="M778.135,599.152h59.664v59.664h-59.664V599.152z"/>
		<path id="rect3743" fill="none" stroke="#000000" stroke-width="5.0794" d="M837.796,599.152h59.664v59.664h-59.664V599.152z"/>
		<path id="rect3745" fill="none" stroke="#000000" stroke-width="5.0794" d="M2.539,539.491h59.664v59.664H2.539V539.491z"/>
		<path id="rect3747" fill="#0000FF" stroke="#000000" stroke-width="5.0794" d="M62.2,539.491h59.665v59.664H62.2V539.491z"/>
		<path id="rect3749" fill="none" stroke="#000000" stroke-width="5.0794" d="M121.862,539.491h59.665v59.664h-59.665V539.491z"/>
		<path id="rect3751" fill="none" stroke="#000000" stroke-width="5.0794" d="M181.524,539.491h59.664v59.664h-59.664V539.491z"/>
		<path id="rect3753" fill="none" stroke="#000000" stroke-width="5.0794" d="M241.185,539.491h59.663v59.664h-59.663V539.491z"/>
		<path id="rect3755" fill="#0000FF" stroke="#000000" stroke-width="5.0794" d="M300.845,539.491h59.664v59.664h-59.664V539.491z"
			/>
		<path id="rect3757" fill="none" stroke="#000000" stroke-width="5.0794" d="M360.506,539.491h59.664v59.664h-59.664V539.491z"/>
		<path id="rect3759" fill="none" stroke="#000000" stroke-width="5.0794" d="M420.168,539.491h59.664v59.664h-59.664V539.491z"/>
		<path id="rect3761" fill="none" stroke="#000000" stroke-width="5.0794" d="M479.829,539.491h59.664v59.664h-59.664V539.491z"/>
		<path id="rect3763" fill="#0000FF" stroke="#000000" stroke-width="5.0794" d="M539.49,539.491h59.664v59.664H539.49V539.491z"/>
		<path id="rect3765" fill="none" stroke="#000000" stroke-width="5.0794" d="M599.152,539.491h59.664v59.664h-59.664V539.491z"/>
		<path id="rect3767" fill="none" stroke="#000000" stroke-width="5.0794" d="M658.813,539.491h59.664v59.664h-59.664V539.491z"/>
		<path id="rect3769" fill="none" stroke="#000000" stroke-width="5.0794" d="M718.474,539.491h59.664v59.664h-59.664V539.491z"/>
		<path id="rect3771" fill="#0000FF" stroke="#000000" stroke-width="5.0794" d="M778.135,539.491h59.664v59.664h-59.664V539.491z"
			/>
		<path id="rect3773" fill="none" stroke="#000000" stroke-width="5.0794" d="M837.796,539.491h59.664v59.664h-59.664V539.491z"/>
		<path id="rect3777" fill="none" stroke="#000000" stroke-width="5.0794" d="M2.539,479.83h59.664v59.664H2.539V479.83z"/>
		<path id="rect3779" fill="none" stroke="#000000" stroke-width="5.0794" d="M62.2,479.83h59.665v59.664H62.2V479.83z"/>
		<path id="rect3781" fill="#00C0FF" stroke="#000000" stroke-width="5.0794" d="M121.862,479.83h59.665v59.664h-59.665V479.83z"/>
		<path id="rect3783" fill="none" stroke="#000000" stroke-width="5.0794" d="M181.524,479.83h59.664v59.664h-59.664V479.83z"/>
		<path id="rect3785" fill="none" stroke="#000000" stroke-width="5.0794" d="M241.185,479.83h59.663v59.664h-59.663V479.83z"/>
		<path id="rect3787" fill="none" stroke="#000000" stroke-width="5.0794" d="M300.845,479.83h59.664v59.664h-59.664V479.83z"/>
		<path id="rect3789" fill="#00C0FF" stroke="#000000" stroke-width="5.0794" d="M360.506,479.83h59.664v59.664h-59.664V479.83z"/>
		<path id="rect3791" fill="none" stroke="#000000" stroke-width="5.0794" d="M420.168,479.83h59.664v59.664h-59.664V479.83z"/>
		<path id="rect3793" fill="#00C0FF" stroke="#000000" stroke-width="5.0794" d="M479.829,479.83h59.664v59.664h-59.664V479.83z"/>
		<path id="rect3795" fill="none" stroke="#000000" stroke-width="5.0794" d="M539.49,479.83h59.664v59.664H539.49V479.83z"/>
		<path id="rect3797" fill="none" stroke="#000000" stroke-width="5.0794" d="M599.152,479.83h59.664v59.664h-59.664V479.83z"/>
		<path id="rect3799" fill="none" stroke="#000000" stroke-width="5.0794" d="M658.813,479.83h59.664v59.664h-59.664V479.83z"/>
		<path id="rect3801" fill="#00C0FF" stroke="#000000" stroke-width="5.0794" d="M718.474,479.83h59.664v59.664h-59.664V479.83z"/>
		<path id="rect3803" fill="none" stroke="#000000" stroke-width="5.0794" d="M778.135,479.83h59.664v59.664h-59.664V479.83z"/>
		<path id="rect3805" fill="none" stroke="#000000" stroke-width="5.0794" d="M837.796,479.83h59.664v59.664h-59.664V479.83z"/>
		<path id="rect3807" fill="#FF0000" stroke="#000000" stroke-width="5.0794" d="M2.539,420.168h59.664v59.665H2.539V420.168z"/>
		<path id="rect3809" fill="none" stroke="#000000" stroke-width="5.0794" d="M62.2,420.168h59.665v59.665H62.2V420.168z"/>
		<path id="rect3811" fill="none" stroke="#000000" stroke-width="5.0794" d="M121.862,420.168h59.665v59.665h-59.665V420.168z"/>
		<path id="rect3813" fill="#00C0FF" stroke="#000000" stroke-width="5.0794" d="M181.524,420.168h59.664v59.665h-59.664V420.168z"
			/>
		<path id="rect3815" fill="none" stroke="#000000" stroke-width="5.0794" d="M241.185,420.168h59.663v59.665h-59.663V420.168z"/>
		<path id="rect3817" fill="none" stroke="#000000" stroke-width="5.0794" d="M300.845,420.168h59.664v59.665h-59.664V420.168z"/>
		<path id="rect3819" fill="none" stroke="#000000" stroke-width="5.0794" d="M360.506,420.168h59.664v59.665h-59.664V420.168z"/>
		<path id="rect3821" fill="#FF80E5" stroke="#000000" stroke-width="5.0794" d="M420.168,420.168h59.664v59.665h-59.664V420.168z"
			/>
		<path id="rect3823" fill="none" stroke="#000000" stroke-width="5.0794" d="M479.829,420.168h59.664v59.665h-59.664V420.168z"/>
		<path id="rect3825" fill="none" stroke="#000000" stroke-width="5.0794" d="M539.49,420.168h59.664v59.665H539.49V420.168z"/>
		<path id="rect3827" fill="none" stroke="#000000" stroke-width="5.0794" d="M599.152,420.168h59.664v59.665h-59.664V420.168z"/>
		<path id="rect3829" fill="#00C0FF" stroke="#000000" stroke-width="5.0794" d="M658.813,420.168h59.664v59.665h-59.664V420.168z"
			/>
		<path id="rect3831" fill="none" stroke="#000000" stroke-width="5.0794" d="M718.474,420.168h59.664v59.665h-59.664V420.168z"/>
		<path id="rect3833" fill="none" stroke="#000000" stroke-width="5.0794" d="M778.135,420.168h59.664v59.665h-59.664V420.168z"/>
		<path id="rect3835" fill="#FF0000" stroke="#000000" stroke-width="5.0794" d="M837.796,420.168h59.664v59.665h-59.664V420.168z"
			/>
		<path id="rect3837" fill="none" stroke="#000000" stroke-width="5.0794" d="M2.539,360.507h59.664v59.664H2.539V360.507z"/>
		<path id="rect3839" fill="none" stroke="#000000" stroke-width="5.0794" d="M62.2,360.507h59.665v59.664H62.2V360.507z"/>
		<path id="rect3841" fill="#00C0FF" stroke="#000000" stroke-width="5.0794" d="M121.862,360.507h59.665v59.664h-59.665V360.507z"
			/>
		<path id="rect3843" fill="none" stroke="#000000" stroke-width="5.0794" d="M181.524,360.507h59.664v59.664h-59.664V360.507z"/>
		<path id="rect3845" fill="none" stroke="#000000" stroke-width="5.0794" d="M241.185,360.507h59.663v59.664h-59.663V360.507z"/>
		<path id="rect3847" fill="none" stroke="#000000" stroke-width="5.0794" d="M300.845,360.507h59.664v59.664h-59.664V360.507z"/>
		<path id="rect3849" fill="#00C0FF" stroke="#000000" stroke-width="5.0794" d="M360.506,360.507h59.664v59.664h-59.664V360.507z"
			/>
		<path id="rect3851" fill="none" stroke="#000000" stroke-width="5.0794" d="M420.168,360.507h59.664v59.664h-59.664V360.507z"/>
		<path id="rect3853" fill="#00C0FF" stroke="#000000" stroke-width="5.0794" d="M479.829,360.507h59.664v59.664h-59.664V360.507z"
			/>
		<path id="rect3855" fill="none" stroke="#000000" stroke-width="5.0794" d="M539.49,360.507h59.664v59.664H539.49V360.507z"/>
		<path id="rect3857" fill="none" stroke="#000000" stroke-width="5.0794" d="M599.152,360.507h59.664v59.664h-59.664V360.507z"/>
		<path id="rect3859" fill="none" stroke="#000000" stroke-width="5.0794" d="M658.813,360.507h59.664v59.664h-59.664V360.507z"/>
		<path id="rect3861" fill="#00C0FF" stroke="#000000" stroke-width="5.0794" d="M718.474,360.507h59.664v59.664h-59.664V360.507z"
			/>
		<path id="rect3863" fill="none" stroke="#000000" stroke-width="5.0794" d="M778.135,360.507h59.664v59.664h-59.664V360.507z"/>
		<path id="rect3865" fill="none" stroke="#000000" stroke-width="5.0794" d="M837.796,360.507h59.664v59.664h-59.664V360.507z"/>
		<path id="rect3869" fill="none" stroke="#000000" stroke-width="5.0794" d="M2.539,300.845h59.664v59.664H2.539V300.845z"/>
		<path id="rect3871" fill="#0000FF" stroke="#000000" stroke-width="5.0794" d="M62.2,300.845h59.665v59.664H62.2V300.845z"/>
		<path id="rect3873" fill="none" stroke="#000000" stroke-width="5.0794" d="M121.862,300.845h59.665v59.664h-59.665V300.845z"/>
		<path id="rect3875" fill="none" stroke="#000000" stroke-width="5.0794" d="M181.524,300.845h59.664v59.664h-59.664V300.845z"/>
		<path id="rect3877" fill="none" stroke="#000000" stroke-width="5.0794" d="M241.185,300.845h59.663v59.664h-59.663V300.845z"/>
		<path id="rect3879" fill="#0000FF" stroke="#000000" stroke-width="5.0794" d="M300.845,300.845h59.664v59.664h-59.664V300.845z"
			/>
		<path id="rect3881" fill="none" stroke="#000000" stroke-width="5.0794" d="M360.506,300.845h59.664v59.664h-59.664V300.845z"/>
		<path id="rect3883" fill="none" stroke="#000000" stroke-width="5.0794" d="M420.168,300.845h59.664v59.664h-59.664V300.845z"/>
		<path id="rect3885" fill="none" stroke="#000000" stroke-width="5.0794" d="M479.829,300.845h59.664v59.664h-59.664V300.845z"/>
		<path id="rect3887" fill="#0000FF" stroke="#000000" stroke-width="5.0794" d="M539.49,300.845h59.664v59.664H539.49V300.845z"/>
		<path id="rect3889" fill="none" stroke="#000000" stroke-width="5.0794" d="M599.152,300.845h59.664v59.664h-59.664V300.845z"/>
		<path id="rect3891" fill="none" stroke="#000000" stroke-width="5.0794" d="M658.813,300.845h59.664v59.664h-59.664V300.845z"/>
		<path id="rect3893" fill="none" stroke="#000000" stroke-width="5.0794" d="M718.474,300.845h59.664v59.664h-59.664V300.845z"/>
		<path id="rect3895" fill="#0000FF" stroke="#000000" stroke-width="5.0794" d="M778.135,300.845h59.664v59.664h-59.664V300.845z"
			/>
		<path id="rect3897" fill="none" stroke="#000000" stroke-width="5.0794" d="M837.796,300.845h59.664v59.664h-59.664V300.845z"/>
		<path id="rect3899" fill="none" stroke="#000000" stroke-width="5.0794" d="M2.539,241.184h59.664v59.664H2.539V241.184z"/>
		<path id="rect3901" fill="none" stroke="#000000" stroke-width="5.0794" d="M62.2,241.184h59.665v59.664H62.2V241.184z"/>
		<path id="rect3903" fill="none" stroke="#000000" stroke-width="5.0794" d="M121.862,241.184h59.665v59.664h-59.665V241.184z"/>
		<path id="rect3905" fill="none" stroke="#000000" stroke-width="5.0794" d="M181.524,241.184h59.664v59.664h-59.664V241.184z"/>
		<path id="rect3907" fill="#FF80E5" stroke="#000000" stroke-width="5.0794" d="M241.185,241.184h59.663v59.664h-59.663V241.184z"
			/>
		<path id="rect3909" fill="none" stroke="#000000" stroke-width="5.0794" d="M300.845,241.184h59.664v59.664h-59.664V241.184z"/>
		<path id="rect3911" fill="none" stroke="#000000" stroke-width="5.0794" d="M360.506,241.184h59.664v59.664h-59.664V241.184z"/>
		<path id="rect3913" fill="none" stroke="#000000" stroke-width="5.0794" d="M420.168,241.184h59.664v59.664h-59.664V241.184z"/>
		<path id="rect3915" fill="none" stroke="#000000" stroke-width="5.0794" d="M479.829,241.184h59.664v59.664h-59.664V241.184z"/>
		<path id="rect3917" fill="none" stroke="#000000" stroke-width="5.0794" d="M539.49,241.184h59.664v59.664H539.49V241.184z"/>
		<path id="rect3919" fill="#FF80E5" stroke="#000000" stroke-width="5.0794" d="M599.152,241.184h59.664v59.664h-59.664V241.184z"
			/>
		<path id="rect3921" fill="none" stroke="#000000" stroke-width="5.0794" d="M658.813,241.184h59.664v59.664h-59.664V241.184z"/>
		<path id="rect3923" fill="none" stroke="#000000" stroke-width="5.0794" d="M718.474,241.184h59.664v59.664h-59.664V241.184z"/>
		<path id="rect3925" fill="none" stroke="#000000" stroke-width="5.0794" d="M778.135,241.184h59.664v59.664h-59.664V241.184z"/>
		<path id="rect3927" fill="none" stroke="#000000" stroke-width="5.0794" d="M837.796,241.184h59.664v59.664h-59.664V241.184z"/>
		<path id="rect3929" fill="#00C0FF" stroke="#000000" stroke-width="5.0794" d="M2.539,181.523h59.664v59.664H2.539V181.523z"/>
		<path id="rect3931" fill="none" stroke="#000000" stroke-width="5.0794" d="M62.2,181.523h59.665v59.664H62.2V181.523z"/>
		<path id="rect3933" fill="none" stroke="#000000" stroke-width="5.0794" d="M121.862,181.523h59.665v59.664h-59.665V181.523z"/>
		<path id="rect3935" fill="#FF80E5" stroke="#000000" stroke-width="5.0794" d="M181.524,181.523h59.664v59.664h-59.664V181.523z"
			/>
		<path id="rect3937" fill="none" stroke="#000000" stroke-width="5.0794" d="M241.185,181.523h59.663v59.664h-59.663V181.523z"/>
		<path id="rect3939" fill="none" stroke="#000000" stroke-width="5.0794" d="M300.845,181.523h59.664v59.664h-59.664V181.523z"/>
		<path id="rect3941" fill="none" stroke="#000000" stroke-width="5.0794" d="M360.506,181.523h59.664v59.664h-59.664V181.523z"/>
		<path id="rect3943" fill="#00C0FF" stroke="#000000" stroke-width="5.0794" d="M420.168,181.523h59.664v59.664h-59.664V181.523z"
			/>
		<path id="rect3945" fill="none" stroke="#000000" stroke-width="5.0794" d="M479.829,181.523h59.664v59.664h-59.664V181.523z"/>
		<path id="rect3947" fill="none" stroke="#000000" stroke-width="5.0794" d="M539.49,181.523h59.664v59.664H539.49V181.523z"/>
		<path id="rect3949" fill="none" stroke="#000000" stroke-width="5.0794" d="M599.152,181.523h59.664v59.664h-59.664V181.523z"/>
		<path id="rect3951" fill="#FF80E5" stroke="#000000" stroke-width="5.0794" d="M658.813,181.523h59.664v59.664h-59.664V181.523z"
			/>
		<path id="rect3953" fill="none" stroke="#000000" stroke-width="5.0794" d="M718.474,181.523h59.664v59.664h-59.664V181.523z"/>
		<path id="rect3955" fill="none" stroke="#000000" stroke-width="5.0794" d="M778.135,181.523h59.664v59.664h-59.664V181.523z"/>
		<path id="rect3957" fill="#00C0FF" stroke="#000000" stroke-width="5.0794" d="M837.796,181.523h59.664v59.664h-59.664V181.523z"
			/>
		<path id="rect3961" fill="none" stroke="#000000" stroke-width="5.0794" d="M2.539,121.862h59.664v59.664H2.539V121.862z"/>
		<path id="rect3963" fill="none" stroke="#000000" stroke-width="5.0794" d="M62.2,121.862h59.665v59.664H62.2V121.862z"/>
		<path id="rect3965" fill="#FF80E5" stroke="#000000" stroke-width="5.0794" d="M121.862,121.862h59.665v59.664h-59.665V121.862z"
			/>
		<path id="rect3967" fill="none" stroke="#000000" stroke-width="5.0794" d="M181.524,121.862h59.664v59.664h-59.664V121.862z"/>
		<path id="rect3969" fill="none" stroke="#000000" stroke-width="5.0794" d="M241.185,121.862h59.663v59.664h-59.663V121.862z"/>
		<path id="rect3971" fill="none" stroke="#000000" stroke-width="5.0794" d="M300.845,121.862h59.664v59.664h-59.664V121.862z"/>
		<path id="rect3973" fill="#00C0FF" stroke="#000000" stroke-width="5.0794" d="M360.506,121.862h59.664v59.664h-59.664V121.862z"
			/>
		<path id="rect3975" fill="none" stroke="#000000" stroke-width="5.0794" d="M420.168,121.862h59.664v59.664h-59.664V121.862z"/>
		<path id="rect3977" fill="#00C0FF" stroke="#000000" stroke-width="5.0794" d="M479.829,121.862h59.664v59.664h-59.664V121.862z"
			/>
		<path id="rect3979" fill="none" stroke="#000000" stroke-width="5.0794" d="M539.49,121.862h59.664v59.664H539.49V121.862z"/>
		<path id="rect3981" fill="none" stroke="#000000" stroke-width="5.0794" d="M599.152,121.862h59.664v59.664h-59.664V121.862z"/>
		<path id="rect3983" fill="none" stroke="#000000" stroke-width="5.0794" d="M658.813,121.862h59.664v59.664h-59.664V121.862z"/>
		<path id="rect3985" fill="#FF80E5" stroke="#000000" stroke-width="5.0794" d="M718.474,121.862h59.664v59.664h-59.664V121.862z"
			/>
		<path id="rect3987" fill="none" stroke="#000000" stroke-width="5.0794" d="M778.135,121.862h59.664v59.664h-59.664V121.862z"/>
		<path id="rect3989" fill="none" stroke="#000000" stroke-width="5.0794" d="M837.796,121.862h59.664v59.664h-59.664V121.862z"/>
		<path id="rect3991" fill="none" stroke="#000000" stroke-width="5.0794" d="M2.539,62.201h59.664v59.664H2.539V62.201z"/>
		<path id="rect3993" fill="#FF80E5" stroke="#000000" stroke-width="5.0794" d="M62.2,62.201h59.665v59.664H62.2V62.201z"/>
		<path id="rect3995" fill="none" stroke="#000000" stroke-width="5.0794" d="M121.862,62.201h59.665v59.664h-59.665V62.201z"/>
		<path id="rect3997" fill="none" stroke="#000000" stroke-width="5.0794" d="M181.524,62.201h59.664v59.664h-59.664V62.201z"/>
		<path id="rect3999" fill="none" stroke="#000000" stroke-width="5.0794" d="M241.185,62.201h59.663v59.664h-59.663V62.201z"/>
		<path id="rect4001" fill="#0000FF" stroke="#000000" stroke-width="5.0794" d="M300.845,62.201h59.664v59.664h-59.664V62.201z"/>
		<path id="rect4003" fill="none" stroke="#000000" stroke-width="5.0794" d="M360.506,62.201h59.664v59.664h-59.664V62.201z"/>
		<path id="rect4005" fill="none" stroke="#000000" stroke-width="5.0794" d="M420.168,62.201h59.664v59.664h-59.664V62.201z"/>
		<path id="rect4007" fill="none" stroke="#000000" stroke-width="5.0794" d="M479.829,62.201h59.664v59.664h-59.664V62.201z"/>
		<path id="rect4009" fill="#0000FF" stroke="#000000" stroke-width="5.0794" d="M539.49,62.201h59.664v59.664H539.49V62.201z"/>
		<path id="rect4011" fill="none" stroke="#000000" stroke-width="5.0794" d="M599.152,62.201h59.664v59.664h-59.664V62.201z"/>
		<path id="rect4013" fill="none" stroke="#000000" stroke-width="5.0794" d="M658.813,62.201h59.664v59.664h-59.664V62.201z"/>
		<path id="rect4015" fill="none" stroke="#000000" stroke-width="5.0794" d="M718.474,62.201h59.664v59.664h-59.664V62.201z"/>
		<path id="rect4017" fill="#FF80E5" stroke="#000000" stroke-width="5.0794" d="M778.135,62.201h59.664v59.664h-59.664V62.201z"/>
		<path id="rect4019" fill="none" stroke="#000000" stroke-width="5.0794" d="M837.796,62.201h59.664v59.664h-59.664V62.201z"/>
		<path id="rect4021" fill="#FF0000" stroke="#000000" stroke-width="5.0794" d="M2.539,2.54h59.664v59.664H2.539V2.54z"/>
		<path id="rect4023" fill="none" stroke="#000000" stroke-width="5.0794" d="M62.2,2.54h59.665v59.664H62.2V2.54z"/>
		<path id="rect4025" fill="none" stroke="#000000" stroke-width="5.0794" d="M121.862,2.54h59.665v59.664h-59.665V2.54z"/>
		<path id="rect4027" fill="#00C0FF" stroke="#000000" stroke-width="5.0794" d="M181.524,2.54h59.664v59.664h-59.664V2.54z"/>
		<path id="rect4029" fill="none" stroke="#000000" stroke-width="5.0794" d="M241.185,2.54h59.663v59.664h-59.663V2.54z"/>
		<path id="rect4031" fill="none" stroke="#000000" stroke-width="5.0794" d="M300.845,2.54h59.664v59.664h-59.664V2.54z"/>
		<path id="rect4033" fill="none" stroke="#000000" stroke-width="5.0794" d="M360.506,2.54h59.664v59.664h-59.664V2.54z"/>
		<path id="rect4035" fill="#FF0000" stroke="#000000" stroke-width="5.0794" d="M420.168,2.54h59.664v59.664h-59.664V2.54z"/>
		<path id="rect4037" fill="none" stroke="#000000" stroke-width="5.0794" d="M479.829,2.54h59.664v59.664h-59.664V2.54z"/>
		<path id="rect4039" fill="none" stroke="#000000" stroke-width="5.0794" d="M539.49,2.54h59.664v59.664H539.49V2.54z"/>
		<path id="rect4041" fill="none" stroke="#000000" stroke-width="5.0794" d="M599.152,2.54h59.664v59.664h-59.664V2.54z"/>
		<path id="rect4043" fill="#00C0FF" stroke="#000000" stroke-width="5.0794" d="M658.813,2.54h59.664v59.664h-59.664V2.54z"/>
		<path id="rect4045" fill="none" stroke="#000000" stroke-width="5.0794" d="M718.474,2.54h59.664v59.664h-59.664V2.54z"/>
		<path id="rect4047" fill="none" stroke="#000000" stroke-width="5.0794" d="M778.135,2.54h59.664v59.664h-59.664V2.54z"/>
		<path id="rect4049" fill="#FF0000" stroke="#000000" stroke-width="5.0794" d="M837.796,2.54h59.664v59.664h-59.664V2.54z"/>
		<path id="path4730" d="M455.326,461.432l-5.286,13.738l-4.281-13.164l-13.452,5.977l6.281-12.336l-13.738-5.286l13.164-4.281
			l-5.977-13.452l12.336,6.281l5.285-13.738l4.282,13.164l13.452-5.977l-6.281,12.336l13.738,5.286l-13.165,4.281l5.978,13.452
			L455.326,461.432z"/>
	</g>
</g>
</svg>
